
<svg width="16px" height="10px" viewBox="0 0 16 10" version="1.1" xmlns="http://www.w3.org/2000/svg" xmlns:xlink="http://www.w3.org/1999/xlink">
    <!-- Generator: Sketch 46.2 (44496) - http://www.bohemiancoding.com/sketch -->
    <desc>Created with Sketch.</desc>
    <defs></defs>
    <g id="Page-1" stroke="none" stroke-width="1" fill="none" fill-rule="evenodd">
        <g id="pointer" fill-rule="nonzero" fill="#FFFFFF">
            <path d="M11.3,0.8 C10.9,0.4 10.3,0.4 9.9,0.8 L9.9,0.8 C9.5,1.2 9.5,1.8 9.9,2.2 L11.7,4 L1.5,4 C0.9,4 0.5,4.4 0.5,5 L0.5,5 C0.5,5.6 0.9,6 1.5,6 L11.7,6 L9.9,7.8 C9.5,8.2 9.5,8.8 9.9,9.2 L9.9,9.2 C10.3,9.6 10.9,9.6 11.3,9.2 L15.5,5 L11.3,0.8 Z" id="Shape" transform="translate(8.000000, 5.000000) rotate(180.000000) translate(-8.000000, -5.000000) "></path>
        </g>
    </g>
</svg>