<?xml version="1.0" encoding="utf-8"?>
<!-- Generator: Adobe Illustrator 19.2.1, SVG Export Plug-In . SVG Version: 6.00 Build 0)  -->
<!DOCTYPE svg PUBLIC "-//W3C//DTD SVG 1.1//EN" "http://www.w3.org/Graphics/SVG/1.1/DTD/svg11.dtd">
<svg version="1.1" id="Слой_1" xmlns="http://www.w3.org/2000/svg" xmlns:xlink="http://www.w3.org/1999/xlink" x="0px" y="0px" viewBox="0 0 30 30" enable-background="new 0 0 30 30" xml:space="preserve">
<switch>
	<g>
		<path fill="#FFFFFF" d="M18.3,10.8c-0.4-0.4-1-0.4-1.4,0l0,0c-0.4,0.4-0.4,1,0,1.4l1.8,1.8H8.5c-0.6,0-1,0.4-1,1v0
			c0,0.6,0.4,1,1,1h10.2l-1.8,1.8c-0.4,0.4-0.4,1,0,1.4v0c0.4,0.4,1,0.4,1.4,0l4.2-4.2L18.3,10.8z"/>
		<g>
			<path fill="#DC853D" d="M-115.6,4.1c7.2,0,13,5.8,13,13s-5.8,13-13,13c-7.2,0-13-5.8-13-13S-122.7,4.1-115.6,4.1 M-115.6,2.1
				c-8.3,0-15,6.7-15,15s6.7,15,15,15s15-6.7,15-15S-107.3,2.1-115.6,2.1L-115.6,2.1z"/>
		</g>
		<path fill="#DC853D" d="M-112.3,12.9c-0.4-0.4-1-0.4-1.4,0v0c-0.4,0.4-0.4,1,0,1.4l1.8,1.8h-10.2c-0.6,0-1,0.4-1,1v0
			c0,0.6,0.4,1,1,1h10.2l-1.8,1.8c-0.4,0.4-0.4,1,0,1.4h0c0.4,0.4,1,0.4,1.4,0l4.2-4.2L-112.3,12.9z"/>
	</g>
</switch>
</svg>
