<?xml version="1.0" encoding="iso-8859-1"?>
<!-- Generator: Adobe Illustrator 19.2.1, SVG Export Plug-In . SVG Version: 6.00 Build 0)  -->
<svg version="1.1" id="&#x421;&#x43B;&#x43E;&#x439;_1"
	 xmlns="http://www.w3.org/2000/svg" xmlns:xlink="http://www.w3.org/1999/xlink" x="0px" y="0px" viewBox="0 0 30 40"
	 style="enable-background:new 0 0 30 40;" xml:space="preserve">
<g>
	<path style="fill:#FFFFFF;" d="M27.67,17.459h-0.582v-5.157c0-6.665-5.419-12.092-12.092-12.092
		c-6.665,0-12.092,5.419-12.092,12.092c0,0.615,0.492,1.107,1.107,1.107s1.106-0.492,1.106-1.107c0-5.444,4.427-9.879,9.879-9.879
		c5.444,0,9.879,4.427,9.879,9.879v5.157H2.33c-1.181,0-2.14,0.959-2.14,2.14V33.38c0,3.533,2.877,6.411,6.411,6.411h16.798
		c3.534,0,6.411-2.877,6.411-6.411V19.598C29.81,18.418,28.851,17.459,27.67,17.459L27.67,17.459z M27.597,33.38
		c0,2.312-1.877,4.198-4.198,4.198H6.609c-2.312,0-4.198-1.877-4.198-4.198V19.672h25.185V33.38z M27.597,33.38"/>
	<path style="fill:#FFFFFF;" d="M15.004,32.929c2.287,0,4.14-1.861,4.14-4.14c0-2.287-1.861-4.14-4.14-4.14
		c-2.287,0-4.14,1.861-4.14,4.14C10.864,31.068,12.717,32.929,15.004,32.929L15.004,32.929z M15.004,26.854
		c1.066,0,1.927,0.869,1.927,1.927c0,1.058-0.861,1.935-1.927,1.935c-1.066,0-1.926-0.869-1.926-1.927S13.938,26.854,15.004,26.854
		L15.004,26.854z M15.004,26.854"/>
</g>
<g>
</g>
<g>
</g>
<g>
</g>
<g>
</g>
<g>
</g>
<g>
</g>
<g>
</g>
<g>
</g>
<g>
</g>
<g>
</g>
<g>
</g>
<g>
</g>
<g>
</g>
<g>
</g>
<g>
</g>
</svg>
