<?xml version="1.0" encoding="iso-8859-1"?>
<!-- Generator: Adobe Illustrator 19.2.1, SVG Export Plug-In . SVG Version: 6.00 Build 0)  -->
<svg version="1.1" id="&#x421;&#x43B;&#x43E;&#x439;_1"
	 xmlns="http://www.w3.org/2000/svg" xmlns:xlink="http://www.w3.org/1999/xlink" x="0px" y="0px" viewBox="0 0 40 40"
	 style="enable-background:new 0 0 40 40;" xml:space="preserve">
<g>
	<g>
		<path style="fill:#FFFFFF;" d="M35.089,9.538c0.028,0.003,0.055,0.005,0.083,0.005c0.197,0,0.388-0.078,0.529-0.219l4.033-4.033
			c0.205-0.205,0.273-0.511,0.174-0.784c-0.099-0.273-0.347-0.464-0.636-0.49l-3.016-0.274l-0.274-3.016
			c-0.026-0.289-0.217-0.537-0.49-0.635c-0.273-0.099-0.578-0.031-0.784,0.174l-4.033,4.033c-0.161,0.161-0.239,0.386-0.214,0.612
			l0.357,3.213l-0.755,0.755c-2.789-2.551-6.448-4.167-10.474-4.346v-1.42c0-0.413-0.335-0.748-0.748-0.748
			c-0.413,0-0.748,0.335-0.748,0.748v1.42C9.509,4.914,2.597,11.827,2.215,20.411h-1.42c-0.413,0-0.748,0.335-0.748,0.748
			c0,0.413,0.335,0.748,0.748,0.748h1.42c0.382,8.584,7.295,15.496,15.878,15.878v1.42c0,0.413,0.335,0.748,0.748,0.748
			c0.413,0,0.748-0.335,0.748-0.748v-1.42c8.583-0.382,15.496-7.295,15.878-15.878h1.42c0.413,0,0.748-0.335,0.748-0.748
			c0-0.413-0.335-0.748-0.748-0.748h-1.42c-0.179-4.026-1.794-7.685-4.346-10.474l0.755-0.755L35.089,9.538z M34.638,2.453
			l0.186,2.046c0.033,0.359,0.317,0.644,0.677,0.677l2.046,0.186l-2.65,2.65l-2.618-0.291l-0.291-2.618L34.638,2.453z M33.97,20.411
			h-1.054c-0.413,0-0.748,0.335-0.748,0.748c0,0.413,0.335,0.748,0.748,0.748h1.054c-0.379,7.758-6.622,14.002-14.381,14.381v-1.054
			c0-0.413-0.335-0.748-0.748-0.748c-0.413,0-0.748,0.335-0.748,0.748v1.054c-7.759-0.379-14.002-6.622-14.381-14.381h1.054
			c0.413,0,0.748-0.335,0.748-0.748c0-0.413-0.335-0.748-0.748-0.748H3.712C4.091,12.652,10.335,6.409,18.093,6.03v1.054
			c0,0.413,0.335,0.748,0.748,0.748c0.413,0,0.748-0.335,0.748-0.748V6.03c3.614,0.177,6.899,1.625,9.416,3.907l-2.251,2.251
			c-2.111-1.864-4.882-2.998-7.913-2.998c-6.599,0-11.968,5.369-11.968,11.969s5.369,11.968,11.968,11.968
			c6.6,0,11.968-5.369,11.968-11.968c0-3.031-1.133-5.802-2.997-7.913l2.251-2.251C32.345,13.512,33.793,16.797,33.97,20.411
			L33.97,20.411z M18.312,21.688c0.146,0.146,0.337,0.219,0.529,0.219c0.191,0,0.383-0.073,0.529-0.219l4.062-4.062
			c0.755,0.979,1.206,2.204,1.206,3.534c0,3.196-2.6,5.797-5.797,5.797c-3.196,0-5.797-2.601-5.797-5.797
			c0-3.197,2.601-5.797,5.797-5.797c1.329,0,2.554,0.451,3.534,1.206l-4.063,4.062C18.02,20.922,18.02,21.396,18.312,21.688
			L18.312,21.688z M18.841,13.866c-4.022,0-7.293,3.272-7.293,7.293s3.272,7.293,7.293,7.293c4.022,0,7.293-3.272,7.293-7.293
			c0-1.742-0.614-3.343-1.637-4.598l2.256-2.256c1.594,1.838,2.561,4.235,2.561,6.854c0,5.774-4.698,10.472-10.472,10.472
			c-5.774,0-10.472-4.698-10.472-10.472c0-5.775,4.698-10.473,10.472-10.473c2.618,0,5.016,0.966,6.854,2.561l-2.256,2.256
			C22.183,14.48,20.583,13.866,18.841,13.866L18.841,13.866z M18.841,13.866"/>
	</g>
</g>
<g>
</g>
<g>
</g>
<g>
</g>
<g>
</g>
<g>
</g>
<g>
</g>
<g>
</g>
<g>
</g>
<g>
</g>
<g>
</g>
<g>
</g>
<g>
</g>
<g>
</g>
<g>
</g>
<g>
</g>
</svg>
