<?xml version="1.0" encoding="iso-8859-1"?>
<!-- Generator: Adobe Illustrator 19.2.1, SVG Export Plug-In . SVG Version: 6.00 Build 0)  -->
<svg version="1.1" id="&#x421;&#x43B;&#x43E;&#x439;_1"
	 xmlns="http://www.w3.org/2000/svg" xmlns:xlink="http://www.w3.org/1999/xlink" x="0px" y="0px" viewBox="0 0 20 40"
	 style="enable-background:new 0 0 20 40;" xml:space="preserve">
<g>
	<path style="fill:#FFFFFF;" d="M15.676,27.139c0-1.004-0.272-1.877-0.816-2.623c-0.545-0.745-1.248-1.354-2.107-1.828
		s-1.813-0.924-2.859-1.354c-1.047-0.43-2.093-0.896-3.139-1.397c-1.047-0.501-2-1.068-2.859-1.699
		c-0.86-0.63-1.563-1.462-2.107-2.494c-0.545-1.032-0.817-2.221-0.817-3.569c0-1.978,0.673-3.676,2.021-5.095
		C4.338,5.66,6.158,4.778,8.452,4.435V0.865h3.44v3.526c2.895,0.344,5.117,1.362,6.664,3.053l-1.978,2.752
		c-1.634-1.634-3.67-2.451-6.106-2.451c-1.778,0-3.161,0.402-4.149,1.204C5.334,9.752,4.84,10.827,4.84,12.174
		c0,1.004,0.272,1.878,0.817,2.623c0.544,0.746,1.247,1.348,2.107,1.806c0.86,0.459,1.813,0.896,2.859,1.312
		c1.046,0.416,2.092,0.867,3.139,1.354c1.046,0.488,1.999,1.04,2.859,1.655c0.86,0.617,1.562,1.456,2.106,2.516
		c0.545,1.061,0.817,2.279,0.817,3.655c0,2.121-0.71,3.906-2.128,5.354c-1.42,1.447-3.262,2.329-5.525,2.645v4.041h-3.44V35.18
		c-1.749-0.201-3.361-0.695-4.837-1.484c-1.477-0.787-2.53-1.77-3.161-2.945l2.107-2.494c0.86,1.119,1.978,1.993,3.354,2.623
		C7.291,31.51,8.652,31.826,10,31.826c1.635,0,2.988-0.416,4.063-1.248C15.139,29.748,15.676,28.601,15.676,27.139z"/>
</g>
<g>
</g>
<g>
</g>
<g>
</g>
<g>
</g>
<g>
</g>
<g>
</g>
<g>
</g>
<g>
</g>
<g>
</g>
<g>
</g>
<g>
</g>
<g>
</g>
<g>
</g>
<g>
</g>
<g>
</g>
</svg>
