<?xml version="1.0" encoding="iso-8859-1"?>
<!-- Generator: Adobe Illustrator 19.2.1, SVG Export Plug-In . SVG Version: 6.00 Build 0)  -->
<svg version="1.1" id="&#x421;&#x43B;&#x43E;&#x439;_1"
	 xmlns="http://www.w3.org/2000/svg" xmlns:xlink="http://www.w3.org/1999/xlink" x="0px" y="0px" viewBox="0 0 30 40"
	 style="enable-background:new 0 0 30 40;" xml:space="preserve">
<g>
	<path style="fill:#FFFFFF;" d="M15,38.441c-0.269,0-0.538-0.052-0.794-0.156c-4.131-1.681-7.651-4.521-10.181-8.212
		c-2.591-3.781-3.961-8.211-3.961-12.812V7.319c0-0.924,0.619-1.752,1.505-2.013l12.005-3.54c0.932-0.275,1.918-0.275,2.85,0
		L28.43,5.305c0.886,0.261,1.505,1.089,1.505,2.013v9.942c0,4.601-1.37,9.032-3.961,12.812c-2.53,3.691-6.05,6.531-10.181,8.212
		C15.538,38.389,15.269,38.441,15,38.441z M15,3.238c-0.32,0-0.639,0.046-0.95,0.137L2.045,6.916
		C1.868,6.968,1.744,7.134,1.744,7.319v9.942c0,4.261,1.268,8.363,3.667,11.863c2.343,3.419,5.604,6.049,9.429,7.606
		c0.104,0.042,0.218,0.042,0.321,0c3.825-1.557,7.085-4.187,9.429-7.606c2.399-3.5,3.667-7.602,3.667-11.863V7.319
		c0-0.185-0.124-0.35-0.301-0.403L15.95,3.376C15.639,3.284,15.32,3.238,15,3.238z"/>
	<path style="fill:#FFFFFF;" d="M15,33.524c-0.201,0-0.401-0.048-0.584-0.144c-2.525-1.322-4.733-3.265-6.386-5.618
		c-2.131-3.034-3.258-6.607-3.258-10.332v-7.049c0-0.556,0.372-1.053,0.905-1.211l8.966-2.644c0.234-0.069,0.48-0.069,0.714,0
		l8.966,2.644c0.533,0.157,0.905,0.655,0.905,1.211v7.049c0,3.725-1.127,7.297-3.258,10.332c-1.653,2.353-3.861,4.295-6.386,5.618
		C15.401,33.476,15.201,33.524,15,33.524z M6.455,10.697v6.734c0,3.377,1.021,6.615,2.952,9.364c1.456,2.073,3.386,3.794,5.593,4.99
		c2.207-1.195,4.137-2.917,5.593-4.99c1.931-2.749,2.952-5.988,2.952-9.364v-6.734L15,8.177L6.455,10.697z"/>
</g>
<g>
</g>
<g>
</g>
<g>
</g>
<g>
</g>
<g>
</g>
<g>
</g>
<g>
</g>
<g>
</g>
<g>
</g>
<g>
</g>
<g>
</g>
<g>
</g>
<g>
</g>
<g>
</g>
<g>
</g>
</svg>
