
<svg width="50px" height="50px" viewBox="0 0 50 50" version="1.1" xmlns="http://www.w3.org/2000/svg" xmlns:xlink="http://www.w3.org/1999/xlink">
    <!-- Generator: Sketch 46.2 (44496) - http://www.bohemiancoding.com/sketch -->
    <desc>Created with Sketch.</desc>
    <defs></defs>
    <g id="Page-1" stroke="none" stroke-width="1" fill="none" fill-rule="evenodd">
        <g id="Group-3" fill-rule="nonzero" fill="#DC853D">
            <path d="M20.3265986,25.6 L22.5265986,25.6 L22.5265986,34.6 C22.5265986,34.8 22.6265986,34.9 22.8265986,34.9 L26.5265986,34.9 C26.7265986,34.9 26.8265986,34.8 26.8265986,34.6 L26.8265986,25.6 L29.3265986,25.6 C29.5265986,25.6 29.6265986,25.5 29.6265986,25.3 L30.0265986,22 C30.0265986,21.9 30.0265986,21.8 29.9265986,21.7 C29.8265986,21.6 29.8265986,21.6 29.7265986,21.6 L26.8265986,21.6 L26.8265986,19.5 C26.8265986,18.9 27.1265986,18.6 27.8265986,18.6 L29.7265986,18.6 C29.9265986,18.6 30.0265986,18.5 30.0265986,18.3 L30.0265986,15.3 C30.0265986,15.1 29.9265986,15 29.7265986,15 L27.1265986,15 C27.1265986,15 27.0265986,15 27.0265986,15 C26.5265986,15 25.0265986,15.1 23.7265986,16.2 C22.3265986,17.5 22.5265986,19 22.6265986,19.3 L22.6265986,21.7 L20.3265986,21.7 C20.1265986,21.7 20.0265986,21.8 20.0265986,22 L20.0265986,25.3 C19.9265986,25.4 20.1265986,25.6 20.3265986,25.6 L20.3265986,25.6 Z" id="Shape"></path>
            <path d="M48,2 L48,48 L2,48 L2,2 L48,2 L48,2 Z M50,0 L0,0 L0,50 L50,50 L50,0 L50,0 Z" id="Shape"></path>
        </g>
    </g>
</svg>