
<svg width="50px" height="50px" viewBox="0 0 50 50" version="1.1" xmlns="http://www.w3.org/2000/svg" xmlns:xlink="http://www.w3.org/1999/xlink">
    <!-- Generator: Sketch 46.2 (44496) - http://www.bohemiancoding.com/sketch -->
    <desc>Created with Sketch.</desc>
    <defs></defs>
    <g id="Page-1" stroke="none" stroke-width="1" fill="none" fill-rule="evenodd">
        <g id="Group-2" fill-rule="nonzero" fill="#DC853D">
            <g id="Group" transform="translate(15.000000, 15.000000)">
                <path d="M4.7,6.5 L0.7,6.5 C0.5,6.5 0.4,6.6 0.4,6.8 L0.4,19.6 C0.4,19.8 0.5,19.9 0.7,19.9 L4.7,19.9 C4.9,19.9 5,19.8 5,19.6 L5,6.8 C5,6.6 4.9,6.5 4.7,6.5 L4.7,6.5 Z" id="Shape"></path>
                <path d="M2.7,0.1 C1.3,0.1 0.1,1.3 0.1,2.7 C0.1,4.1 1.3,5.3 2.7,5.3 C4.1,5.3 5.3,4.1 5.3,2.7 C5.3,1.3 4.2,0.1 2.7,0.1 L2.7,0.1 Z" id="Shape"></path>
                <path d="M14.8,6.1 C13.2,6.1 12,6.8 11.3,7.6 L11.3,6.8 C11.3,6.6 11.2,6.5 11,6.5 L7.2,6.5 C7,6.5 6.9,6.6 6.9,6.8 L6.9,19.6 C6.9,19.8 7,19.9 7.2,19.9 L11.2,19.9 C11.4,19.9 11.5,19.8 11.5,19.6 L11.5,13.3 C11.5,11.2 12.1,10.3 13.6,10.3 C15.2,10.3 15.3,11.6 15.3,13.4 L15.3,19.6 C15.3,19.8 15.4,19.9 15.6,19.9 L19.6,19.9 C19.8,19.9 19.9,19.8 19.9,19.6 L19.9,12.6 C19.9,9.4 19.3,6.1 14.8,6.1 L14.8,6.1 Z" id="Shape"></path>
            </g>
            <path d="M48,2 L48,48 L2,48 L2,2 L48,2 L48,2 Z M50,0 L0,0 L0,50 L50,50 L50,0 L50,0 Z" id="Shape"></path>
        </g>
    </g>
</svg>