
<svg width="30px" height="37px" viewBox="0 0 30 37" version="1.1" xmlns="http://www.w3.org/2000/svg" xmlns:xlink="http://www.w3.org/1999/xlink">
    <!-- Generator: Sketch 46.2 (44496) - http://www.bohemiancoding.com/sketch -->
    <desc>Created with Sketch.</desc>
    <defs></defs>
    <g id="Page-1" stroke="none" stroke-width="1" fill="none" fill-rule="evenodd">
        <g id="placeholder" fill-rule="nonzero" fill="#999999">
            <path d="M25.4,4.3 C22.5,1.5 18.6,-1.76247905e-15 14.5,0.1 C7,0.3 0.8,6.1 0.1,13.6 C3.53883589e-16,15 3.53883589e-16,16.4 0.3,17.8 C0.3,17.9 0.3,18 0.4,18.3 C0.6,19.3 1,20.3 1.4,21.2 C2.9,24.8 6.2,30.3 13.4,36.2 C13.9,36.6 14.4,36.8 15,36.8 C15.6,36.8 16.1,36.6 16.6,36.2 C23.8,30.3 27.1,24.8 28.6,21.2 C29,20.3 29.4,19.3 29.6,18.3 C29.7,18 29.7,17.9 29.7,17.8 C29.9,16.9 30,16 30,15 C30,10.9 28.3,7.1 25.4,4.3 L25.4,4.3 Z M27,17.4 C27,17.4 27,17.4 27,17.4 C27,17.5 27,17.6 26.9,17.8 L26.9,17.8 C26.7,18.6 26.4,19.5 26.1,20.2 C26.1,20.2 26.1,20.2 26.1,20.2 C24.7,23.5 21.6,28.6 15,34.1 C8.3,28.6 5.3,23.5 3.9,20.2 C3.9,20.2 3.9,20.2 3.9,20.2 C3.5,19.4 3.3,18.6 3.1,17.8 L3.1,17.8 C3,17.6 3,17.5 3,17.4 C3,17.4 3,17.4 3,17.3 C2.8,16.1 2.7,14.9 2.8,13.8 C3.4,7.7 8.4,3 14.5,2.8 C17.9,2.7 21,3.9 23.5,6.2 C25.9,8.5 27.2,11.7 27.2,15 C27.3,15.8 27.2,16.6 27,17.4 L27,17.4 Z" id="Shape"></path>
            <path d="M15,7.2 C10.6,7.2 7,10.8 7,15.2 C7,19.6 10.6,23.2 15,23.2 C15.7,23.2 16.3,22.6 16.3,21.9 C16.3,21.2 15.7,20.6 15,20.6 C12.1,20.6 9.7,18.2 9.7,15.3 C9.7,12.4 12.1,10 15,10 C17.9,10 20.3,12.4 20.3,15.3 C20.3,16.6 19.9,17.8 19,18.7 C18.5,19.3 18.6,20.1 19.2,20.6 C19.8,21.1 20.6,21 21.1,20.4 C22.3,19 23,17.1 23,15.2 C23,10.8 19.4,7.2 15,7.2 L15,7.2 Z" id="Shape"></path>
        </g>
    </g>
</svg>