
<svg width="16px" height="10px" viewBox="0 0 16 10" version="1.1" xmlns="http://www.w3.org/2000/svg" xmlns:xlink="http://www.w3.org/1999/xlink">
    <!-- Generator: Sketch 46.2 (44496) - http://www.bohemiancoding.com/sketch -->
    <desc>Created with Sketch.</desc>
    <defs></defs>
    <g id="Page-2" stroke="none" stroke-width="1" fill="none" fill-rule="evenodd">
        <g id="pointer2" transform="translate(-6.000000, 0.000000)" fill-rule="nonzero" fill="#DC853D">
            <path d="M17.3,0.8 C16.9,0.4 16.3,0.4 15.9,0.8 L15.9,0.8 C15.5,1.2 15.5,1.8 15.9,2.2 L17.7,4 L7.5,4 C6.9,4 6.5,4.4 6.5,5 L6.5,5 C6.5,5.6 6.9,6 7.5,6 L17.7,6 L15.9,7.8 C15.5,8.2 15.5,8.8 15.9,9.2 L15.9,9.2 C16.3,9.6 16.9,9.6 17.3,9.2 L21.5,5 L17.3,0.8 Z" id="Shape2" transform="translate(14.000000, 5.000000) rotate(180.000000) translate(-14.000000, -5.000000) "></path>
        </g>
    </g>
</svg>