
<svg width="80px" height="80px" viewBox="0 0 80 80" version="1.1" xmlns="http://www.w3.org/2000/svg" xmlns:xlink="http://www.w3.org/1999/xlink">
    <!-- Generator: Sketch 46.2 (44496) - http://www.bohemiancoding.com/sketch -->
    <desc>Created with Sketch.</desc>
    <defs></defs>
    <g id="Page-1" stroke="none" stroke-width="1" fill="none" fill-rule="evenodd">
        <g id="user" transform="translate(-341.000000, -185.000000)" fill-rule="nonzero" fill="#222222">
            <g id="Group" transform="translate(341.000000, 185.000000)">
                <path d="M74.7,51.6 L72.1,51.6 L72.1,56.7 L51.6,56.7 L51.6,51.6 L49,51.6 C46.9,51.6 45,52.9 44.2,54.8 L41.2,54.3 L41.2,53 C45.5,50.5 48.7,46.2 49.8,41.2 C52.9,40.8 55.3,38.1 55.3,34.9 L55.3,20.7 C55.3,11.9 48.5,4.7 39.9,4.1 L39.9,0.2 L25.9,0.2 C16.7,0.2 9.2,7.7 9.2,16.9 L9.2,34.9 C9.2,38.1 11.6,40.8 14.7,41.2 C15.8,46.2 19,50.5 23.3,53 L23.3,54.3 L16.7,55.3 C10.7,56.2 5.7,60.5 4,66.2 L0.2,77 L0.2,79.8 L49,79.8 L54.1,79.8 L74.6,79.8 C76,79.8 77.4,79.2 78.3,78.2 C79.2,77.2 79.7,75.9 79.7,74.6 L79.7,56.7 C79.8,53.9 77.5,51.6 74.7,51.6 Z M46.4,56.7 C46.4,55.3 47.6,54.1 49,54.1 L49,69.5 C48.1,69.5 47.2,69.8 46.4,70.2 L46.4,56.7 Z M17.2,63.8 L19.3,57.6 L23.8,56.9 L30.1,75.9 L22.6,71.8 L25.2,67.9 L17.2,63.8 Z M43.9,69.8 L43.1,68.7 L43.9,68.2 L43.9,69.8 Z M43.9,65.2 L39.5,67.8 L42,71.6 L34.5,75.7 L40.8,56.7 L43.8,57.2 L43.8,65.2 L43.9,65.2 Z M32.3,74.5 L27.8,60.9 C29,61.5 30.5,61.9 32.3,61.9 C34.1,61.9 35.6,61.5 36.8,60.9 L32.3,74.5 Z M38.7,55.2 L38.6,55.4 C38.2,56.4 36.7,59.2 32.3,59.2 C27.9,59.2 26.3,56.3 26,55.4 L25.9,55.2 L25.9,54.2 C27.9,55 30.1,55.4 32.3,55.4 C34.6,55.4 36.7,55 38.7,54.2 L38.7,55.2 Z M43.9,73.6 L43.9,74.6 C43.9,75.5 44.1,76.4 44.6,77.2 L37.3,77.2 L43.9,73.6 Z M50.2,38.5 C50.2,38.1 50.3,37.8 50.3,37.4 L50.3,31.2 C51.8,31.7 52.9,33.1 52.9,34.8 C52.8,36.6 51.7,38 50.2,38.5 Z M25.9,2.8 L37.5,2.8 L37.5,6.7 L38.8,6.7 C46.6,6.7 52.9,13 52.9,20.8 L52.9,29.8 C52.1,29.2 51.3,28.8 50.3,28.6 L50.3,24.6 L14.3,24.6 L14.3,28.6 C13.3,28.8 12.5,29.2 11.7,29.8 L11.7,16.9 C11.7,9.1 18.1,2.8 25.9,2.8 Z M11.7,34.9 C11.7,33.2 12.8,31.8 14.3,31.3 L14.3,37.5 C14.3,37.9 14.3,38.2 14.4,38.6 C12.8,38 11.7,36.6 11.7,34.9 Z M16.9,37.4 L16.9,27.2 L47.7,27.2 L47.7,37.5 C47.7,46 40.8,52.9 32.3,52.9 C23.8,52.9 16.9,45.9 16.9,37.4 Z M6.4,67 C7.8,62.4 11.7,59 16.4,58 L14.1,65 L21.5,68.7 L19,72.5 L27.4,77.2 L15.8,77.2 L16.9,68.4 L14.4,68.1 L13.3,77.2 L2.8,77.2 L6.4,67 Z M77.2,74.7 C77.2,75.4 77,76 76.5,76.5 C76,77 75.3,77.3 74.6,77.3 L54.1,77.3 L49,77.3 C48.3,77.3 47.6,77 47.1,76.5 C46.6,76 46.4,75.4 46.4,74.7 L46.4,74.7 C46.4,74.7 46.4,74.6 46.4,74.6 C46.5,73.3 47.7,72.2 49.2,72.2 L51.6,72.2 L51.6,59.3 L72.1,59.3 L72.1,72.1 L74.5,72.1 C76,72.1 77.2,73.2 77.3,74.5 C77.2,74.6 77.2,74.6 77.2,74.7 L77.2,74.7 Z M77.2,70.3 C76.4,69.9 75.6,69.6 74.6,69.6 L74.6,54.1 C76,54.1 77.2,55.3 77.2,56.7 L77.2,70.3 Z" id="Shape"></path>
                <rect id="Rectangle-path" x="54.1" y="61.8" width="15.4" height="2.6"></rect>
                <rect id="Rectangle-path" x="54.1" y="67" width="15.4" height="2.6"></rect>
                <rect id="Rectangle-path" x="67" y="72.1" width="2.6" height="2.6"></rect>
                <rect id="Rectangle-path" x="54.1" y="72.1" width="10.3" height="2.6"></rect>
            </g>
        </g>
    </g>
</svg>