
<svg width="50px" height="50px" viewBox="0 0 50 50" version="1.1" xmlns="http://www.w3.org/2000/svg" xmlns:xlink="http://www.w3.org/1999/xlink">
    <!-- Generator: Sketch 46.2 (44496) - http://www.bohemiancoding.com/sketch -->
    <desc>Created with Sketch.</desc>
    <defs></defs>
    <g id="Page-1" stroke="none" stroke-width="1" fill="none" fill-rule="evenodd">
        <g id="Group" fill-rule="nonzero" fill="#DC853D">
            <g id="linkedin2">
                <path d="M48,2 L48,48 L2,48 L2,2 L48,2 L48,2 Z M50,0 L0,0 L0,50 L50,50 L50,0 L50,0 Z" id="Shape"></path>
            </g>
            <path d="M36.7392305,17.3 C36.3392305,17.5 35.9392305,17.6 35.5392305,17.7 C36.0392305,17.2 36.3392305,16.5 36.6392305,15.8 C36.6392305,15.6 36.6392305,15.5 36.5392305,15.4 C36.4392305,15.3 36.2392305,15.3 36.1392305,15.4 C35.2392305,15.9 34.3392305,16.3 33.4392305,16.5 C32.4392305,15.5 31.1392305,15 29.7392305,15 C26.8392305,15 24.5392305,17.3 24.5392305,20.2 C24.5392305,20.4 24.5392305,20.7 24.5392305,20.9 C20.9392305,20.6 17.6392305,18.8 15.3392305,16 C15.2392305,15.9 15.1392305,15.8 15.0392305,15.9 C14.9392305,15.9 14.8392305,16 14.7392305,16.1 C14.2392305,16.9 14.0392305,17.8 14.0392305,18.7 C14.0392305,20 14.5392305,21.2 15.2392305,22.1 C15.0392305,22 14.7392305,21.9 14.5392305,21.8 C14.4392305,21.7 14.2392305,21.7 14.1392305,21.8 C14.0392305,21.9 13.9392305,22 13.9392305,22.1 C13.9392305,22.1 13.9392305,22.1 13.9392305,22.2 C13.9392305,24.1 14.9392305,25.8 16.5392305,26.7 C16.4392305,26.7 16.2392305,26.7 16.1392305,26.6 C16.0392305,26.6 15.8392305,26.6 15.7392305,26.7 C15.6392305,26.8 15.6392305,26.9 15.6392305,27.1 C16.2392305,28.9 17.6392305,30.2 19.4392305,30.6 C17.9392305,31.5 16.2392305,32 14.5392305,32 C14.1392305,32 13.8392305,32 13.4392305,31.9 C13.2392305,31.9 13.0392305,32 13.0392305,32.2 C12.9392305,32.4 13.0392305,32.6 13.2392305,32.7 C15.5392305,34.2 18.1392305,34.9 20.8392305,34.9 C26.1392305,34.9 29.5392305,32.4 31.3392305,30.3 C33.6392305,27.7 34.9392305,24.2 34.9392305,20.8 C34.9392305,20.7 34.9392305,20.5 34.9392305,20.4 C35.8392305,19.7 36.6392305,18.9 37.2392305,17.9 C37.3392305,17.8 37.3392305,17.6 37.2392305,17.4 C37.1392305,17.3 36.9392305,17.3 36.7392305,17.3 L36.7392305,17.3 Z" id="Shape"></path>
        </g>
    </g>
</svg>