
<svg width="50px" height="50px" viewBox="0 0 50 50" version="1.1" xmlns="http://www.w3.org/2000/svg" xmlns:xlink="http://www.w3.org/1999/xlink">
    <!-- Generator: Sketch 46.2 (44496) - http://www.bohemiancoding.com/sketch -->
    <desc>Created with Sketch.</desc>
    <defs></defs>
    <g id="Page-1" stroke="none" stroke-width="1" fill="none" fill-rule="evenodd">
        <g id="Group-2" fill="#DC853D">
            <path d="M48,2 L48,48 L2,48 L2,2 L48,2 L48,2 Z M50,0 L0,0 L0,50 L50,50 L50,0 L50,0 Z" id="Shape" fill-rule="nonzero"></path>
            <path d="M37.0137035,27.5535899 C38.2074303,28.6583058 39.4011572,29.7630217 40.3959296,31.068595 C40.8933157,31.6711673 41.2912247,32.1733109 41.5896564,32.876312 C42.0870426,33.7801704 41.5896564,34.7844576 40.7938385,34.8848864 L35.7204994,34.8848864 C34.4272953,34.9853151 33.3330457,34.4831715 32.4377506,33.579313 C31.7414099,32.876312 31.0450693,32.0728822 30.4482059,31.3698812 C30.1497741,31.068595 29.8513424,30.7673089 29.5529107,30.5664514 C28.8565701,30.0643078 28.2597066,30.2651653 27.8617977,30.9681663 C27.4638887,31.6711673 27.3644115,32.5750258 27.3644115,33.3784556 C27.2649343,34.5836002 26.9665026,34.8848864 25.7727757,34.9853151 C23.1863676,35.0857438 20.7989139,34.6840289 18.5109374,33.3784556 C16.5213927,32.2737397 14.9297569,30.5664514 13.6365528,28.7587345 C11.0501446,25.1433006 8.96112267,21.2265806 7.17053241,17.2094318 C6.77262346,16.3055733 7.07105517,15.8034298 8.06582754,15.8034298 C9.75694057,15.8034298 11.3485764,15.8034298 13.0396894,15.8034298 C13.73603,15.8034298 14.133939,16.2051446 14.4323707,16.8077169 C15.3276658,19.0171488 16.4219154,21.1261519 17.8145968,23.1347262 C18.2125057,23.6368698 18.5109374,24.1390134 19.1078008,24.5407283 C19.7046643,24.9424432 20.1025732,24.8420145 20.4010049,24.1390134 C20.5999594,23.7372985 20.6994366,23.235155 20.6994366,22.8334401 C20.7989139,21.3270093 20.7989139,19.7201498 20.5999594,18.213719 C20.5004822,17.2094318 19.9036187,16.6068595 19.0083236,16.4060021 C18.5109374,16.3055733 18.6104147,16.1047159 18.8093691,15.8034298 C19.2072781,15.3012862 19.605187,15 20.4010049,15 L26.1706847,15 C27.0659798,15.2008574 27.2649343,15.6025723 27.3644115,16.5064308 L27.3644115,22.9338688 C27.3644115,23.3355837 27.563366,24.3398709 28.1602294,24.5407283 C28.6576156,24.7415857 28.9560473,24.3398709 29.3539563,23.938156 C30.7466376,22.4317252 31.7414099,20.724437 32.5372278,18.91672 C32.9351368,18.1132903 33.2335685,17.3098605 33.6314774,16.5064308 C33.8304319,15.9038585 34.2283409,15.6025723 34.9246815,15.6025723 L40.4954068,15.6025723 C40.6943613,15.6025723 40.7938385,15.6025723 40.992793,15.6025723 C41.8880881,15.8034298 42.1865198,16.2051446 41.8880881,17.1090031 C41.3907019,18.5150052 40.594884,19.7201498 39.6995889,20.9252944 C38.8042938,22.2308678 37.8095214,23.4360124 36.9142263,24.7415857 C35.9194539,25.9467304 36.0189311,26.5493027 37.0137035,27.5535899 L37.0137035,27.5535899 Z" id="Shape"></path>
        </g>
    </g>
</svg>